# xmcd
#
# Track frame offsets: 
#        150
#        23863
#        46148
#        66148
#        86913
#        106330
#        128953
#        140308
#        162325
#
# Disc length: 2469 seconds
#
# Revision: 5
# Processed by: cddbd v1.5.2PL0 Copyright (c) Steve Scherf et al.
# Submitted via: ExactAudioCopy v0.99pb5
#
DISCID=7609a309
DTITLE=Charlie Parker - Charlie Parker at Storyville
DYEAR=1953
DGENRE=Jazz
TTITLE0=Moose the Mooche
TTITLE1=I'll Walk Alone
TTITLE2=Ornithology
TTITLE3=Out of Nowhere
TTITLE4=Now's the Time
TTITLE5=Don't Blame Me
TTITLE6=Dancing on the Ceiling
TTITLE7=Cool Blues
TTITLE8=Groovin' High
EXTD=Recorded at Storyville, Boston, on September 22, 1953\nBroadcast 
EXTD=on WHDH - Announcer: John McLellan\nCharlie Parker - alto sax - Re
EXTD=d Garland - piano\nBilly Griggs - bass - Roy Haynes - drums\nand o
EXTD=n #5,6,7,8,9:\nHerb Pomeroy - trumpet - Sir Charles Thompson - pia
EXTD=no\nJimmy Woode - bass - Kenny Clarke - drums YEAR: 2007
EXTT0=(Charlie Parker)
EXTT1=(Styne-Cahn)
EXTT2=(Parker-Harris)
EXTT3=(Green-Heyman)
EXTT4=(Charlie Parker)
EXTT5=(Fields-McHugh)
EXTT6=(Rodgers-Hart)
EXTT7=(Charlie Parker)
EXTT8=(Gillespie)
PLAYORDER=
